<?xml version="1.0" standalone="no"?>
<!DOCTYPE svg PUBLIC "-//W3C//DTD SVG 20010904//EN"
 "http://www.w3.org/TR/2001/REC-SVG-20010904/DTD/svg10.dtd">
<svg version="1.0" xmlns="http://www.w3.org/2000/svg"
 width="286.000000pt" height="286.000000pt" viewBox="0 0 286.000000 286.000000"
 preserveAspectRatio="xMidYMid meet">
<metadata>
Created by potrace 1.11, written by Peter Selinger 2001-2013
</metadata>
<g transform="translate(0.000000,286.000000) scale(0.100000,-0.100000)"
fill="#000000" stroke="none">
<path d="M1220 2833 c1 -51 67 -584 74 -590 3 -3 8 -4 10 -2 7 7 -69 619 -76
619 -5 0 -8 -12 -8 -27z"/>
<path d="M1390 2550 c0 -200 4 -310 10 -310 6 0 10 110 10 310 0 200 -4 310
-10 310 -6 0 -10 -110 -10 -310z"/>
<path d="M1550 2853 c0 -17 -41 -338 -59 -468 -11 -77 -16 -144 -11 -148 10
-11 11 -3 55 337 40 308 38 286 25 286 -5 0 -10 -3 -10 -7z"/>
<path d="M1646 2535 c-75 -267 -93 -349 -73 -324 6 6 177 616 177 628 0 6 -3
11 -7 11 -5 0 -48 -142 -97 -315z"/>
<path d="M1130 2828 c1 -29 107 -578 113 -585 4 -3 9 -4 11 -2 7 7 -107 599
-116 599 -4 0 -8 -6 -8 -12z"/>
<path d="M1310 2803 c0 -62 32 -558 36 -562 2 -2 7 -2 10 1 8 9 -29 598 -38
598 -4 0 -8 -17 -8 -37z"/>
<path d="M1611 2778 c-16 -81 -91 -521 -91 -535 0 -7 4 -13 8 -13 5 0 30 126
56 280 26 154 50 289 53 300 3 11 1 20 -5 20 -6 0 -15 -24 -21 -52z"/>
<path d="M957 2813 c-4 -6 5 -46 20 -89 15 -44 57 -176 94 -294 36 -118 72
-216 79 -218 9 -3 11 1 7 11 -3 9 -40 123 -81 254 -97 309 -111 349 -119 336z"/>
<path d="M1910 2758 c-100 -218 -251 -571 -246 -576 3 -3 8 -3 10 -1 4 4 241
532 273 607 25 61 -7 34 -37 -30z"/>
<path d="M978 2495 c63 -167 118 -302 123 -299 5 3 -3 35 -17 72 -166 444
-201 532 -210 532 -6 0 41 -137 104 -305z"/>
<path d="M1470 2790 c0 -21 -40 -477 -45 -512 -4 -30 -2 -38 10 -38 9 0 14 3
12 8 -3 4 6 122 19 262 27 300 27 290 14 290 -5 0 -10 -4 -10 -10z"/>
<path d="M710 2751 c0 -22 301 -602 309 -596 8 4 -280 579 -300 600 -6 5 -9 4
-9 -4z"/>
<path d="M1710 2493 c-117 -335 -106 -301 -88 -283 13 13 198 520 198 543 0 4
-4 7 -8 7 -4 0 -50 -120 -102 -267z"/>
<path d="M1060 2723 c0 -24 126 -503 133 -503 4 0 7 5 7 12 0 29 -124 498
-131 498 -5 0 -9 -3 -9 -7z"/>
<path d="M840 2672 c0 -18 203 -478 218 -492 13 -13 14 -13 8 5 -4 11 -53 127
-109 257 -89 208 -117 263 -117 230z"/>
<path d="M1891 2414 c-84 -145 -151 -267 -148 -270 2 -3 14 7 25 23 32 46 292
495 292 504 0 28 -30 -17 -169 -257z"/>
<path d="M1832 2429 c-68 -132 -122 -245 -120 -251 3 -7 36 49 75 123 121 230
183 358 175 363 -4 2 -63 -103 -130 -235z"/>
<path d="M630 2655 c0 -7 298 -464 330 -505 10 -14 21 -22 24 -19 7 6 -330
523 -344 527 -6 2 -10 1 -10 -3z"/>
<path d="M2027 2383 c-113 -152 -204 -280 -201 -285 3 -5 89 103 192 239 102
136 196 262 209 280 13 17 20 34 15 36 -4 3 -101 -118 -215 -270z"/>
<path d="M457 2593 c-3 -4 87 -118 199 -253 227 -271 231 -276 239 -268 3 3
-89 120 -205 259 -248 298 -226 273 -233 262z"/>
<path d="M1940 2367 c-158 -241 -156 -237 -142 -237 5 0 73 96 149 213 165
251 155 234 146 240 -5 3 -73 -94 -153 -216z"/>
<path d="M590 2574 c0 -10 216 -314 336 -472 1 -2 5 1 8 6 3 5 -49 83 -116
173 -66 90 -141 194 -166 232 -39 58 -62 81 -62 61z"/>
<path d="M2120 2275 c-129 -129 -228 -235 -220 -235 15 0 470 448 470 463 0 4
-3 7 -8 7 -4 0 -113 -106 -242 -235z"/>
<path d="M2040 2288 c-96 -111 -176 -205 -178 -209 -13 -34 36 15 174 173 191
219 196 225 187 231 -5 3 -87 -85 -183 -195z"/>
<path d="M437 2474 c-3 -4 65 -81 151 -172 246 -259 262 -276 268 -269 3 3
-68 86 -159 184 -195 210 -251 266 -260 257z"/>
<path d="M327 2463 c-2 -4 102 -109 232 -232 211 -201 272 -253 260 -224 -3 7
-221 215 -450 431 -20 18 -39 30 -42 25z"/>
<path d="M270 2375 c0 -2 98 -84 218 -181 119 -98 232 -191 250 -208 21 -19
35 -27 42 -20 6 6 -29 41 -103 99 -61 49 -174 140 -250 202 -123 101 -157 124
-157 108z"/>
<path d="M2141 2198 c-115 -101 -210 -186 -210 -190 -1 -5 3 -8 8 -8 9 0 431
367 431 375 0 17 -42 -15 -229 -177z"/>
<path d="M2229 2179 c-259 -200 -265 -206 -257 -214 7 -8 498 373 498 386 0 5
-2 9 -4 9 -2 0 -109 -82 -237 -181z"/>
<path d="M2470 2239 c-36 -27 -72 -53 -81 -57 -37 -17 -379 -245 -379 -253 0
-5 2 -9 5 -9 3 0 84 52 181 115 96 63 177 115 179 115 8 0 175 122 181 131 14
23 -27 3 -86 -42z"/>
<path d="M282 2261 c2 -5 97 -78 213 -162 116 -83 220 -160 231 -171 13 -11
24 -15 28 -10 7 11 -33 47 -131 115 -37 26 -126 90 -198 142 -124 90 -151 106
-143 86z"/>
<path d="M180 2201 c0 -8 446 -297 508 -330 13 -7 28 -11 35 -8 6 2 -15 19
-48 39 -33 19 -156 96 -273 172 -117 75 -215 136 -218 136 -2 0 -4 -4 -4 -9z"/>
<path d="M1275 2194 c-69 -12 -153 -37 -200 -62 -199 -104 -346 -278 -400
-472 -26 -92 -30 -243 -10 -335 34 -156 78 -238 194 -354 86 -87 107 -103 201
-149 135 -65 237 -87 368 -78 51 4 112 13 135 22 23 8 63 22 88 29 57 18 180
99 240 157 187 182 258 439 195 709 -20 85 -31 109 -87 194 -77 116 -187 218
-296 273 -96 49 -318 83 -428 66z m301 -149 c181 -66 324 -218 374 -398 28
-100 28 -280 0 -370 -30 -96 -182 -277 -270 -322 -110 -55 -170 -67 -317 -63
l-138 3 -107 53 c-91 45 -116 63 -175 126 -91 97 -131 179 -149 304 -18 130
-17 186 5 252 72 214 236 372 449 431 90 26 233 18 328 -16z"/>
<path d="M1344 1933 c12 -191 18 -253 27 -253 5 0 7 24 4 53 -2 28 -7 109 -11
180 -4 75 -10 127 -16 127 -7 0 -8 -37 -4 -107z"/>
<path d="M1425 1978 c-3 -35 -13 -97 -21 -139 -9 -42 -14 -96 -12 -120 2 -32
10 1 31 126 30 189 31 195 18 195 -5 0 -12 -28 -16 -62z"/>
<path d="M1268 2024 c-6 -8 44 -245 69 -329 3 -11 2 -16 -3 -12 -5 5 -36 76
-69 159 -33 83 -65 153 -72 155 -6 2 13 -58 44 -134 89 -222 81 -207 98 -193
21 17 19 33 -15 178 -44 184 -45 188 -52 176z"/>
<path d="M1454 1840 c-26 -93 -45 -173 -41 -176 4 -4 9 -5 10 -3 5 5 97 332
97 342 0 4 -4 7 -9 7 -4 0 -30 -76 -57 -170z"/>
<path d="M1563 1963 c-61 -143 -130 -319 -127 -322 8 -8 28 18 31 40 2 11 28
76 58 143 55 125 72 176 61 176 -4 0 -14 -17 -23 -37z"/>
<path d="M1117 1973 c-4 -7 97 -198 159 -300 21 -37 41 -45 23 -10 -47 89
-172 317 -174 317 -2 0 -6 -3 -8 -7z"/>
<path d="M1563 1801 c-99 -158 -118 -195 -91 -173 15 12 198 304 198 316 0 23
-26 -12 -107 -143z"/>
<path d="M1040 1914 c0 -5 147 -189 214 -269 39 -46 39 -25 0 25 -56 72 -98
122 -116 142 -10 10 -18 21 -18 24 0 10 -63 84 -72 84 -4 0 -8 -3 -8 -6z"/>
<path d="M1602 1764 c-117 -149 -128 -164 -113 -164 11 0 231 277 231 291 0 5
-2 9 -5 9 -3 0 -53 -61 -113 -136z"/>
<path d="M990 1862 c0 -15 258 -264 263 -255 6 9 -243 263 -257 263 -3 0 -6
-3 -6 -8z"/>
<path d="M1651 1717 c-107 -108 -141 -147 -125 -147 4 0 46 38 93 84 47 46
105 100 129 121 23 20 42 41 42 46 0 25 -36 -2 -139 -104z"/>
<path d="M930 1806 c0 -4 82 -70 205 -165 82 -63 98 -78 68 -62 -13 6 -23 9
-23 6 0 -3 -15 5 -32 18 -55 40 -251 140 -246 126 5 -18 288 -170 308 -166 35
6 7 38 -123 139 -124 96 -157 118 -157 104z"/>
<path d="M1744 1708 c-107 -74 -200 -151 -187 -155 6 -2 57 31 115 74 58 43
121 89 141 103 35 24 47 40 29 40 -5 0 -49 -28 -98 -62z"/>
<path d="M1795 1638 c-146 -57 -214 -92 -201 -105 3 -3 307 125 314 131 2 2 0
6 -5 9 -4 2 -53 -13 -108 -35z"/>
<path d="M1328 1627 c-19 -18 -67 -59 -106 -92 -39 -33 -71 -63 -71 -68 -1 -4
51 -41 114 -83 l116 -75 32 25 c18 14 42 35 55 46 12 12 22 19 22 16 0 -3 16
11 36 30 20 19 41 34 45 34 5 0 13 8 18 18 8 15 -3 26 -67 70 -42 29 -95 65
-118 81 l-40 30 -36 -32z"/>
<path d="M860 1642 c0 -8 302 -107 315 -104 23 7 -10 21 -145 63 -167 52 -170
53 -170 41z"/>
<path d="M840 1572 c0 -5 60 -19 133 -31 72 -12 144 -25 160 -28 16 -3 27 -1
27 5 0 6 -21 14 -47 17 -27 4 -92 16 -146 26 -110 21 -127 23 -127 11z"/>
<path d="M1765 1544 c-77 -12 -144 -23 -148 -23 -5 -1 -5 -6 -2 -11 3 -6 16
-8 28 -5 12 2 86 14 165 26 78 12 142 26 142 30 0 12 -24 10 -185 -17z"/>
<path d="M820 1490 c0 -6 60 -10 161 -10 104 0 158 3 154 10 -4 6 -68 10 -161
10 -96 0 -154 -4 -154 -10z"/>
<path d="M1633 1483 c8 -7 320 -33 326 -27 11 10 -13 15 -110 24 -123 11 -225
13 -216 3z"/>
<path d="M962 1450 c-122 -16 -152 -23 -141 -34 2 -2 69 5 149 15 80 10 148
18 153 19 4 0 7 5 7 10 0 12 -2 12 -168 -10z"/>
<path d="M1615 1449 c29 -13 337 -80 343 -74 10 10 -8 16 -161 50 -156 35
-225 44 -182 24z"/>
<path d="M965 1408 c-130 -29 -143 -33 -133 -43 8 -8 307 58 302 67 -7 11 -24
9 -169 -24z"/>
<path d="M1575 1430 c-5 -9 47 -31 214 -90 116 -41 141 -46 141 -32 0 4 -33
19 -72 31 -40 13 -119 40 -176 61 -56 21 -104 34 -107 30z"/>
<path d="M1015 1370 c-178 -63 -173 -61 -157 -67 16 -6 282 85 302 104 22 20
7 16 -145 -37z"/>
<path d="M1550 1403 c0 -11 314 -183 335 -183 30 0 5 18 -138 98 -139 78 -197
103 -197 85z"/>
<path d="M1145 1383 c-84 -42 -253 -148 -248 -155 2 -5 15 -3 26 5 12 7 77 46
145 87 67 40 122 74 122 76 0 7 -14 2 -45 -13z"/>
<path d="M1530 1377 c8 -8 77 -64 153 -126 123 -100 164 -126 142 -92 -9 15
-245 205 -272 219 -29 16 -41 15 -23 -1z"/>
<path d="M1069 1274 c-74 -58 -136 -113 -138 -122 -3 -16 -2 -16 15 -1 11 9
76 62 147 118 70 56 127 104 127 106 0 15 -30 -5 -151 -101z"/>
<path d="M1220 1349 c-8 -10 -64 -70 -124 -134 -60 -63 -106 -119 -102 -122 4
-4 51 40 106 98 127 136 152 166 143 172 -5 3 -15 -3 -23 -14z"/>
<path d="M1528 1323 c49 -61 228 -233 243 -233 8 0 -47 61 -121 135 -132 133
-181 171 -122 98z"/>
<path d="M1456 1324 c-16 -23 -16 -29 -2 -77 29 -96 103 -281 115 -285 11 -4
-11 61 -83 245 -20 51 -36 96 -36 100 0 5 39 -66 86 -157 95 -181 92 -176 100
-168 3 4 -34 83 -81 178 -48 94 -85 173 -83 176 3 2 53 -66 112 -151 91 -132
126 -173 126 -150 0 5 -155 229 -193 278 -16 20 -32 37 -37 37 -4 0 -15 -11
-24 -26z"/>
<path d="M1212 1288 c-126 -176 -170 -243 -165 -251 3 -4 6 -7 8 -5 5 6 201
283 208 296 5 6 3 12 -2 12 -6 0 -28 -23 -49 -52z"/>
<path d="M1247 1268 c-92 -169 -140 -268 -133 -275 5 -4 10 -3 12 2 3 6 42 82
89 170 47 88 85 161 85 163 0 1 -4 2 -9 2 -5 0 -25 -28 -44 -62z"/>
<path d="M1308 1315 c-6 -11 -108 -359 -108 -369 0 -3 4 -6 9 -6 10 0 114 355
109 372 -3 7 -7 8 -10 3z"/>
<path d="M1337 1280 c-4 -14 -16 -96 -27 -184 -19 -141 -20 -179 -6 -165 8 8
47 321 44 348 l-4 26 -7 -25z"/>
<path d="M1424 1280 c27 -152 71 -350 77 -350 12 0 12 2 -16 138 -20 101 -74
289 -61 212z"/>
<path d="M1364 1108 c7 -166 10 -200 19 -187 9 12 -6 369 -15 369 -8 0 -9 -57
-4 -182z"/>
<path d="M1397 1283 c-5 -8 32 -365 39 -372 14 -15 13 28 -6 190 -11 100 -22
184 -24 187 -2 2 -6 0 -9 -5z"/>
<path d="M2303 2028 c-150 -82 -270 -154 -267 -159 3 -6 21 -1 41 11 20 12
135 76 257 142 212 116 255 142 245 152 -2 2 -127 -63 -276 -146z"/>
<path d="M80 2117 c0 -7 55 -40 123 -74 68 -34 201 -102 297 -152 95 -50 177
-88 182 -84 11 6 -40 34 -374 206 -128 65 -228 111 -228 104z"/>
<path d="M2316 1959 c-120 -61 -226 -117 -234 -125 -34 -35 4 -22 106 34 59
33 165 88 235 121 70 33 127 64 127 70 0 6 -3 11 -7 10 -5 0 -107 -50 -227
-110z"/>
<path d="M2460 1928 c-275 -101 -384 -148 -372 -160 6 -6 28 0 58 15 27 13
155 64 284 112 225 84 259 99 249 109 -2 2 -101 -32 -219 -76z"/>
<path d="M50 1983 c0 -8 576 -223 598 -223 6 0 12 5 12 10 0 6 -5 10 -10 10
-6 0 -139 47 -296 105 -157 58 -290 105 -295 105 -5 0 -9 -3 -9 -7z"/>
<path d="M2380 1818 c-151 -44 -277 -82 -279 -84 -13 -12 15 -16 47 -7 20 6
145 43 276 82 132 39 241 73 243 75 19 19 -50 3 -287 -66z"/>
<path d="M52 1858 c3 -7 110 -40 239 -75 307 -83 348 -93 354 -83 7 11 -32 33
-44 26 -4 -3 -79 15 -167 39 -333 91 -385 104 -382 93z"/>
<path d="M2402 1750 c-150 -32 -275 -60 -279 -64 -19 -18 18 -16 114 7 60 14
180 40 268 57 143 28 188 42 174 53 -2 2 -127 -22 -277 -53z"/>
<path d="M2435 1689 c-159 -28 -291 -52 -294 -54 -2 -3 -2 -7 1 -10 5 -5 83 7
458 70 80 14 149 25 153 25 4 0 7 5 7 10 0 14 0 14 -325 -41z"/>
<path d="M200 1720 c0 -5 2 -10 6 -10 11 0 365 -60 388 -66 13 -3 27 -1 30 5
8 13 3 14 -227 51 -218 35 -197 33 -197 20z"/>
<path d="M10 1662 c0 -4 123 -22 273 -40 149 -19 284 -37 299 -42 30 -10 49 4
20 15 -19 7 -532 75 -569 75 -13 0 -23 -4 -23 -8z"/>
<path d="M2400 1592 c-140 -13 -257 -26 -259 -28 -17 -15 43 -13 286 10 153
14 282 26 286 26 5 0 5 5 2 10 -8 13 -7 13 -315 -18z"/>
<path d="M0 1563 c0 -6 57 -13 138 -16 373 -18 472 -20 472 -10 0 6 -65 12
-162 16 -90 4 -227 10 -305 13 -93 5 -143 4 -143 -3z"/>
<path d="M2225 1521 c-49 -3 -85 -9 -80 -12 15 -10 545 3 545 12 0 10 -314 9
-465 0z"/>
<path d="M385 1479 c-99 -3 -222 -7 -272 -8 -60 -1 -93 -5 -93 -12 0 -8 65 -9
228 -5 275 8 372 15 372 27 0 5 -12 8 -27 7 -16 -1 -109 -5 -208 -9z"/>
<path d="M2146 1461 c10 -10 672 -36 681 -27 4 3 4 8 2 10 -4 3 -560 26 -643
26 -29 0 -46 -4 -40 -9z"/>
<path d="M589 1436 c-2 -2 -91 -12 -197 -22 -173 -16 -226 -25 -212 -37 11 -9
420 39 432 51 9 9 9 12 -3 12 -9 0 -18 -2 -20 -4z"/>
<path d="M2140 1410 c0 -5 10 -10 23 -10 12 -1 157 -14 322 -29 165 -16 302
-27 304 -25 13 12 -34 19 -311 45 -347 33 -338 32 -338 19z"/>
<path d="M287 1312 c-158 -26 -287 -50 -287 -54 0 -13 20 -10 315 37 154 25
283 45 288 45 4 0 7 5 7 10 0 14 2 14 -323 -38z"/>
<path d="M2140 1352 c0 -5 149 -30 330 -56 287 -42 358 -49 339 -32 -4 3 -636
96 -656 96 -7 0 -13 -4 -13 -8z"/>
<path d="M2130 1301 c0 -13 6 -15 323 -86 174 -39 286 -60 291 -54 6 5 7 9 4
9 -21 0 -546 122 -560 130 -22 13 -58 13 -58 1z"/>
<path d="M341 1249 c-129 -27 -237 -52 -240 -54 -2 -3 -2 -7 1 -10 7 -7 510
96 523 107 18 16 -54 5 -284 -43z"/>
<path d="M2120 1252 c0 -13 -12 -9 360 -127 202 -65 329 -100 334 -94 6 5 7 9
3 9 -6 0 -648 203 -680 216 -9 3 -17 2 -17 -4z"/>
<path d="M319 1146 c-326 -106 -329 -107 -312 -113 14 -5 612 184 628 198 22
21 -46 3 -316 -85z"/>
<path d="M415 1105 c-121 -52 -221 -99 -224 -106 -2 -7 2 -10 10 -7 8 3 106
45 219 93 113 48 211 89 218 92 13 6 17 24 5 22 -5 0 -107 -43 -228 -94z"/>
<path d="M2116 1191 c19 -19 588 -261 596 -253 4 4 -125 65 -287 135 -274 118
-334 141 -309 118z"/>
<path d="M2080 1152 c0 -6 659 -369 691 -380 5 -2 9 1 9 6 0 9 -677 382 -693
382 -4 0 -7 -3 -7 -8z"/>
<path d="M380 983 c-162 -85 -297 -157 -299 -159 -2 -2 -2 -7 2 -10 6 -6 541
270 582 300 11 8 18 17 15 19 -3 3 -138 -65 -300 -150z"/>
<path d="M2066 1101 c-4 -6 13 -22 36 -37 159 -98 364 -229 368 -234 9 -11 84
-60 92 -60 17 0 6 17 -22 33 -16 10 -35 24 -42 31 -8 7 -101 68 -208 136 -107
67 -200 127 -207 132 -7 5 -14 5 -17 -1z"/>
<path d="M460 944 c-208 -128 -259 -164 -235 -164 14 0 485 292 485 301 0 5
-3 9 -7 8 -5 0 -114 -66 -243 -145z"/>
<path d="M2031 1043 c0 -9 540 -403 552 -403 19 0 -15 28 -241 195 -299 221
-313 231 -311 208z"/>
<path d="M454 854 c-241 -166 -292 -204 -269 -204 6 0 414 277 518 351 21 15
34 30 29 33 -5 3 -130 -78 -278 -180z"/>
<path d="M2010 1001 c0 -6 15 -24 33 -39 17 -16 118 -105 222 -197 105 -93
218 -195 251 -228 35 -33 64 -54 68 -49 6 10 -73 84 -414 388 -145 129 -160
141 -160 125z"/>
<path d="M535 794 c-216 -183 -249 -214 -228 -214 10 1 467 389 471 401 10 25
-32 -7 -243 -187z"/>
<path d="M1970 952 c0 -4 75 -82 166 -172 91 -91 185 -186 210 -212 63 -67 63
-43 0 28 -67 75 -359 364 -369 364 -4 0 -7 -4 -7 -8z"/>
<path d="M601 721 c-111 -115 -198 -212 -193 -215 8 -5 412 405 412 418 0 20
-38 -16 -219 -203z"/>
<path d="M1927 924 c-2 -5 118 -140 269 -301 150 -161 276 -288 278 -284 3 5
-103 125 -235 267 -301 323 -305 328 -312 318z"/>
<path d="M632 652 c-193 -224 -228 -267 -205 -259 6 1 300 336 431 490 13 14
13 17 1 16 -8 0 -110 -111 -227 -247z"/>
<path d="M1906 872 c-3 -5 78 -115 179 -246 101 -130 186 -233 189 -228 4 7
-292 401 -359 480 -2 2 -5 -1 -9 -6z"/>
<path d="M789 723 c-57 -75 -112 -150 -122 -166 -10 -16 -29 -40 -42 -55 -13
-14 -21 -30 -18 -35 6 -10 48 35 90 98 22 31 137 185 205 272 5 6 5 14 0 17
-5 3 -55 -56 -113 -131z"/>
<path d="M1848 824 c28 -50 286 -422 357 -514 44 -57 83 -109 87 -114 4 -6 10
-7 14 -4 4 4 -24 48 -61 98 -37 50 -138 192 -224 317 -87 125 -163 229 -170
231 -10 3 -10 0 -3 -14z"/>
<path d="M762 553 c-151 -245 -193 -320 -148 -272 16 17 336 535 336 543 0 26
-39 -30 -188 -271z"/>
<path d="M1790 802 c0 -16 316 -526 329 -530 9 -3 5 10 -10 35 -270 450 -319
526 -319 495z"/>
<path d="M977 768 c-8 -13 -58 -106 -112 -208 -54 -102 -118 -220 -142 -263
-25 -44 -42 -82 -39 -85 10 -9 29 23 152 253 65 121 131 244 147 273 28 50 22
76 -6 30z"/>
<path d="M1756 782 c-3 -5 55 -121 129 -258 179 -333 208 -381 213 -366 2 7
-7 31 -21 55 -13 23 -44 78 -67 122 -64 120 -243 450 -245 453 -2 2 -6 -1 -9
-6z"/>
<path d="M1698 764 c-3 -5 35 -94 85 -199 49 -104 109 -235 132 -289 23 -55
47 -102 53 -104 14 -4 -41 135 -116 293 -119 251 -149 309 -154 299z"/>
<path d="M895 460 c-76 -166 -135 -304 -131 -307 3 -3 8 -4 10 -2 6 6 276 597
276 604 0 32 -38 -41 -155 -295z"/>
<path d="M1071 728 c-5 -13 -43 -111 -84 -218 -42 -107 -85 -217 -96 -243 -22
-52 -28 -88 -11 -71 5 5 46 104 91 219 123 319 129 335 118 335 -5 0 -13 -10
-18 -22z"/>
<path d="M1648 734 c-5 -8 214 -599 226 -612 22 -22 3 40 -95 299 -119 315
-124 326 -131 313z"/>
<path d="M1118 725 c-5 -8 -74 -219 -188 -567 -10 -32 -15 -60 -10 -63 10 -6
214 609 208 627 -3 7 -7 8 -10 3z"/>
<path d="M1167 710 c-13 -32 -136 -525 -131 -529 2 -2 7 -2 10 2 11 10 135
510 131 526 -3 14 -5 14 -10 1z"/>
<path d="M1597 713 c-7 -13 185 -645 194 -636 7 7 -172 627 -184 639 -3 3 -7
2 -10 -3z"/>
<path d="M1547 703 c-2 -4 20 -125 50 -268 30 -143 57 -279 60 -303 3 -23 10
-42 14 -42 11 0 11 43 -1 95 -4 22 -31 147 -58 278 -28 131 -52 241 -55 243
-3 3 -7 2 -10 -3z"/>
<path d="M1216 683 c-2 -10 -19 -94 -36 -188 -17 -93 -42 -226 -56 -293 -22
-109 -25 -146 -10 -131 5 4 54 248 99 492 13 70 21 130 16 132 -4 3 -10 -3
-13 -12z"/>
<path d="M1427 693 c-2 -4 2 -109 9 -233 8 -124 16 -278 20 -342 3 -65 10
-118 16 -118 10 0 6 119 -17 479 -13 204 -17 232 -28 214z"/>
<path d="M1488 695 c-5 -10 81 -666 88 -674 17 -19 11 51 -25 321 -42 311 -53
371 -63 353z"/>
<path d="M1266 668 c-11 -50 -66 -581 -61 -586 3 -3 7 -3 9 -1 2 2 18 130 35
284 17 154 34 290 36 303 3 12 1 22 -5 22 -5 0 -12 -10 -14 -22z"/>
<path d="M1316 638 c-3 -29 -13 -176 -22 -326 -15 -239 -15 -298 0 -281 2 2
11 132 20 289 9 157 19 304 22 328 3 25 1 42 -5 42 -5 0 -12 -24 -15 -52z"/>
<path d="M1363 608 c4 -46 7 -181 7 -300 0 -139 4 -218 10 -218 12 0 13 187 3
433 -3 99 -10 167 -16 167 -6 0 -8 -30 -4 -82z"/>
</g>
</svg>
